<?xml version="1.0" standalone="no"?>
<!DOCTYPE svg PUBLIC "-//W3C//DTD SVG 20010904//EN"
 "http://www.w3.org/TR/2001/REC-SVG-20010904/DTD/svg10.dtd">
<svg version="1.0" xmlns="http://www.w3.org/2000/svg"
 width="900.000000pt" height="483.000000pt" viewBox="0 0 900.000000 483.000000"
 preserveAspectRatio="xMidYMid meet">

<g transform="translate(0.000000,483.000000) scale(0.100000,-0.100000)"
fill="#000000" stroke="none">
<path d="M3883 2853 l-53 -16 30 -34 c17 -18 30 -40 30 -48 0 -10 12 -15 38
-16 l37 -2 -40 -7 -40 -7 45 -3 c55 -3 142 0 151 6 10 6 -16 110 -31 129 -16
20 -97 19 -167 -2z m187 -88 c0 -14 -2 -25 -4 -25 -2 0 -6 11 -8 25 -3 14 -1
25 3 25 5 0 9 -11 9 -25z m-58 -27 c-9 -9 -15 -9 -24 0 -9 9 -7 12 12 12 19 0
21 -3 12 -12z"/>
<path d="M1490 2770 c0 -5 5 -10 10 -10 6 0 10 5 10 10 0 6 -4 10 -10 10 -5 0
-10 -4 -10 -10z"/>
<path d="M1728 2762 c-103 -2 -128 -6 -140 -19 -11 -15 -11 -16 5 -10 10 4 98
7 195 7 140 1 173 3 157 12 -23 13 -39 14 -217 10z"/>
<path d="M2000 2737 c0 -10 5 -15 10 -12 6 3 10 1 10 -5 0 -6 4 -9 9 -5 5 3
12 1 15 -4 7 -11 -22 -23 -35 -15 -5 3 -9 -50 -9 -127 0 -73 -5 -162 -11 -198
-15 -82 -47 -161 -58 -142 -12 19 -228 16 -306 -4 -60 -16 -80 -25 -54 -25 8
0 -15 -17 -51 -37 -91 -52 -131 -88 -182 -166 -15 -23 -31 -46 -35 -52 -5 -5
-9 -19 -10 -30 -2 -11 -7 -44 -12 -74 -11 -72 4 -191 30 -236 12 -19 17 -35
13 -35 -4 0 1 -7 12 -15 10 -8 15 -15 10 -15 -15 0 111 -115 149 -136 33 -17
48 -44 25 -44 -16 0 -11 -17 7 -24 65 -25 684 -25 724 0 6 3 56 8 112 10 56 2
140 6 187 9 47 4 321 8 610 10 289 2 563 6 610 10 47 3 150 8 230 10 80 3 165
7 188 11 24 4 67 8 95 9 29 1 64 5 78 9 15 4 29 3 33 -2 3 -6 25 -5 58 2 29 7
74 11 100 11 26 -1 45 2 42 6 -7 12 70 6 78 -6 5 -6 8 -5 8 4 0 11 3 11 17 0
11 -10 14 -10 9 -1 -4 7 -2 12 8 12 8 0 22 3 32 7 13 5 15 3 9 -7 -5 -8 -4
-11 2 -7 5 3 31 7 57 8 26 2 49 5 51 8 3 5 680 6 680 1 0 -7 89 -12 245 -14
102 0 188 -5 192 -10 4 -6 12 -5 21 2 7 7 16 10 18 7 3 -2 35 -7 71 -10 37 -3
77 -8 90 -11 13 -2 91 -7 173 -10 134 -4 179 -8 195 -15 3 -1 39 -3 80 -5 79
-2 106 -6 115 -16 3 -3 20 -3 38 1 18 4 43 5 57 4 59 -8 162 -14 265 -16 61
-2 115 -6 122 -10 6 -4 15 -2 19 4 4 8 9 7 15 -2 7 -11 9 -11 9 -1 0 7 4 11
10 7 16 -10 305 -14 320 -5 13 9 13 10 0 11 -8 1 -18 1 -22 0 -5 0 -8 3 -8 7
0 5 -6 9 -12 10 -7 0 -24 3 -38 7 -14 3 -32 8 -40 10 -8 2 -15 4 -15 5 0 4
-74 17 -140 25 -27 4 -68 11 -90 16 -22 5 -49 11 -60 13 -59 11 -86 17 -109
26 -15 5 -26 7 -26 4 0 -4 -7 -1 -15 6 -8 6 -20 8 -26 4 -7 -4 -9 -3 -6 3 4 6
0 14 -9 17 -9 4 -13 2 -8 -5 3 -6 -6 -3 -22 7 -15 11 -29 18 -31 17 -2 -2 -4
-3 -5 -2 -28 8 -54 7 -66 -3 -9 -7 0 8 20 33 19 26 45 68 58 93 21 45 24 47
59 44 25 -2 37 -8 39 -20 3 -13 -3 -18 -22 -18 -23 0 -26 -4 -26 -34 0 -30 4
-34 31 -40 17 -3 52 -6 78 -6 41 -1 44 -2 28 -14 -16 -13 -12 -15 45 -23 35
-5 210 -11 391 -12 297 -2 327 0 327 15 0 9 -9 18 -21 21 -18 5 -20 13 -19 92
2 150 20 133 -129 129 -77 -2 -127 1 -123 6 3 5 -2 6 -12 3 -10 -4 -32 -7 -48
-7 -30 0 -34 -9 -6 -14 7 -1 19 -6 27 -10 10 -6 12 -5 7 2 -4 7 -3 12 2 12 6
0 12 -7 16 -15 3 -8 11 -15 18 -15 9 0 8 3 -2 10 -9 6 -10 10 -3 10 11 0 27
-18 28 -30 0 -3 9 -16 19 -30 14 -19 17 -21 12 -5 -5 15 -4 17 4 9 6 -6 12
-18 14 -27 1 -8 8 -23 16 -33 10 -11 11 -18 4 -21 -6 -2 -9 -14 -7 -27 5 -22
8 -23 81 -20 97 4 43 -11 -65 -18 -55 -4 -70 -2 -66 8 2 7 -27 46 -66 86 -64
68 -99 123 -87 136 5 4 20 7 66 11 11 1 11 4 2 13 -9 9 -18 9 -37 0 -15 -7
-31 -10 -36 -7 -5 4 -9 -4 -9 -17 0 -15 -3 -19 -8 -11 -8 13 -216 18 -235 6
-18 -11 17 -21 41 -12 22 9 23 8 12 -6 -11 -14 -11 -16 1 -13 8 2 20 10 26 18
11 13 12 12 7 -5 -7 -19 -6 -20 8 -1 12 15 17 16 23 6 6 -9 4 -11 -5 -5 -9 5
-11 4 -6 -4 6 -9 11 -9 22 0 8 6 14 8 14 3 0 -5 5 -2 10 6 7 11 10 11 10 2 0
-7 4 -11 9 -8 5 3 12 -1 15 -10 4 -9 13 -14 21 -10 8 3 15 2 15 -3 0 -5 -15
-12 -32 -15 -18 -3 -59 -20 -92 -36 l-59 -30 -38 39 c-29 28 -39 47 -39 70 0
25 4 31 22 31 38 0 6 19 -42 24 -25 3 -37 3 -28 0 10 -3 23 -27 32 -58 10 -32
29 -66 48 -86 34 -34 19 -32 -19 3 -28 25 -30 14 -3 -20 26 -33 25 -40 -4 -45
-22 -5 -24 -1 -31 66 -4 39 -8 81 -9 94 -1 13 -7 22 -17 22 -9 0 -19 3 -23 7
-10 10 -36 13 -36 3 0 -4 10 -20 22 -36 l22 -29 -31 28 c-27 25 -29 31 -19 52
6 13 13 23 16 23 3 0 12 1 20 3 8 1 -16 5 -54 8 l-70 6 -11 53 c-13 55 -51
134 -92 189 -50 66 -168 139 -258 159 -11 3 -59 5 -106 5 -66 1 -103 -5 -157
-24 l-70 -24 -24 22 c-63 60 -232 92 -328 62 l-45 -14 60 -7 c33 -4 63 -8 68
-9 4 -1 -161 -2 -365 -2 -428 0 -585 -6 -613 -23 -17 -11 -14 -12 24 -6 32 4
42 3 36 -6 -5 -8 2 -10 27 -6 46 8 179 24 203 25 144 4 650 -2 727 -9 55 -5
105 -7 111 -3 6 3 7 1 3 -5 -5 -8 1 -13 16 -13 25 -2 55 -5 77 -7 8 -1 -5 -16
-28 -32 l-42 -31 -44 37 c-37 30 -46 33 -51 20 -3 -9 -14 -16 -23 -16 -37 -1
-51 -25 -51 -88 l0 -62 -42 5 c-24 3 -56 7 -73 9 -16 3 -37 5 -45 5 -13 1 -13
2 0 12 11 8 5 9 -25 4 -49 -8 -81 -24 -50 -25 25 0 121 -73 118 -89 -2 -6 4
-11 13 -11 22 0 12 -25 -12 -27 -10 -1 -64 -12 -119 -23 -115 -23 -552 -96
-637 -106 l-58 -6 0 63 c0 66 -7 78 -12 17 -2 -35 -4 -37 -45 -43 -24 -3 -46
-6 -49 -5 -3 1 -12 -7 -20 -17 -12 -15 -12 -12 0 13 9 18 35 49 58 69 51 45
27 40 -37 -7 -38 -29 -44 -38 -45 -70 0 -34 -3 -38 -37 -47 -44 -11 -106 -26
-147 -35 l-28 -7 6 218 c5 205 2 245 -20 244 -5 0 -8 7 -7 16 1 13 -21 14
-185 9 -103 -4 -214 -9 -247 -11 -51 -3 -54 -3 -20 4 22 5 109 12 193 16 83 4
152 11 152 17 0 5 24 6 60 2 l59 -7 -12 27 c-8 17 -13 21 -15 11 -2 -8 -14
-15 -27 -15 -18 0 -25 6 -28 28 l-4 27 -2 -27 c-1 -26 -4 -28 -43 -29 -24 -1
-47 0 -53 1 -61 16 -364 6 -497 -16 -16 -2 -28 0 -28 6 0 6 -3 9 -7 7 -5 -3
-33 -8 -63 -12 -30 -4 -58 -9 -61 -10 -3 -2 -34 -7 -69 -10 -72 -7 -83 -11
-73 -28 5 -9 3 -9 -8 -1 -11 9 -64 12 -64 4 0 -2 -32 -9 -65 -14 -14 -2 -46
-13 -72 -24 -25 -11 -49 -18 -52 -15 -3 4 -6 1 -6 -5 0 -6 -16 -14 -35 -18
-19 -3 -33 -10 -30 -14 3 -5 0 -12 -6 -16 -7 -4 -9 -3 -5 4 3 6 2 13 -4 17 -5
3 -10 1 -10 -5 0 -7 -6 -10 -14 -7 -8 3 -20 -1 -27 -9 -8 -10 -15 -12 -23 -4
-5 5 -15 10 -21 10 -5 0 -3 -5 5 -11 11 -7 6 -8 -19 -4 -27 6 -32 4 -25 -6 6
-12 5 -12 -9 0 -14 11 -17 11 -17 0 0 -11 -2 -11 -10 1 -8 12 -10 12 -10 -5 0
-14 -3 -16 -8 -8 -6 9 -33 12 -93 9 -67 -3 -93 0 -128 16 -34 15 -41 22 -31
31 10 9 14 9 17 0 3 -7 10 -13 16 -13 5 0 7 3 3 7 -3 4 6 12 21 19 l28 11 -27
-1 c-16 0 -28 -3 -28 -6 0 -3 -8 -6 -17 -6 -10 -1 -40 -4 -68 -7 l-50 -7 55
16 c30 8 62 18 70 21 8 3 18 6 21 5 3 0 6 6 6 14 0 12 -3 12 -17 -1 -19 -17
-40 -21 -23 -4 6 6 9 18 6 25 -8 21 44 36 98 29 26 -3 86 1 135 9 107 19 187
26 314 30 52 2 113 6 135 9 22 4 78 9 125 11 47 3 128 10 180 15 52 6 150 11
217 12 67 1 120 6 117 10 -8 13 36 21 126 22 l81 2 31 -35 30 -35 -22 33 c-37
55 -72 67 -182 65 l-98 -2 -15 29 c-8 16 -15 35 -15 43 0 8 -6 17 -13 20 -20
7 -82 -2 -85 -13 -2 -6 -10 -10 -17 -10 -8 0 -17 -5 -21 -12 -4 -7 -3 -8 4 -4
7 4 12 2 12 -3 0 -12 -35 -9 -47 4 -5 4 -1 5 7 1 8 -4 6 1 -5 11 -15 13 -20
31 -20 66 l-1 48 41 -2 c61 -3 65 -1 65 30 0 28 -1 29 -42 25 -80 -9 -150 -24
-181 -39 -16 -8 -34 -15 -39 -15 -5 0 -20 -12 -34 -27 -27 -30 -23 -17 9 32
l21 30 -25 -22 c-20 -18 -26 -19 -36 -8 -18 20 -17 22 20 35 50 17 18 27 -128
36 -152 9 -252 7 -315 -7 -46 -11 -165 -20 -142 -12 18 7 15 31 -5 41 -18 10
-38 9 -82 -4 -14 -4 -30 -8 -36 -8 -35 -5 -75 -19 -75 -27 0 -6 -4 -8 -9 -4
-5 3 -98 -28 -207 -68 l-197 -74 59 -47 c32 -25 62 -46 65 -46 4 0 9 -7 13
-15 4 -10 -6 -20 -32 -32 -20 -9 -41 -15 -45 -14 -5 1 -6 -3 -2 -9 4 -6 -6
-10 -24 -10 -33 0 -151 -55 -151 -71 0 -15 16 -11 165 46 l144 56 41 -27 c22
-15 40 -27 40 -28 0 0 -19 0 -42 0 -47 1 -96 -10 -112 -26 -19 -19 16 -30 102
-30 45 0 82 -4 82 -9 0 -11 -62 -61 -75 -61 -5 0 -16 -6 -24 -14 -13 -11 -27
-12 -65 -5 -55 10 -67 22 -64 57 l3 24 -145 -1 c-140 0 -144 0 -110 16 l35 16
-39 9 c-22 4 -44 12 -50 16 -6 5 -65 10 -131 11 -65 1 -123 5 -129 8 -5 4 13
16 41 28 l50 23 6 63 c8 75 5 335 -4 343 -3 4 -58 7 -122 9 -107 2 -117 0
-117 -16z m217 -23 c-3 -3 -12 -4 -19 -1 -8 3 -5 6 6 6 11 1 17 -2 13 -5z m0
-40 c-3 -3 -12 -4 -19 -1 -8 3 -5 6 6 6 11 1 17 -2 13 -5z m1038 -83 c46 -21
69 -45 80 -81 6 -20 3 -18 -17 10 -33 49 -82 72 -139 67 -59 -5 -103 -36 -134
-95 -13 -26 -24 -41 -25 -34 0 24 40 90 67 110 62 43 110 50 168 23z m-1225
-5 c0 -3 -4 -8 -10 -11 -5 -3 -10 -1 -10 4 0 6 5 11 10 11 6 0 10 -2 10 -4z
m65 -6 c-3 -5 -15 -10 -26 -10 -10 0 -19 5 -19 10 0 6 12 10 26 10 14 0 23 -4
19 -10z m1096 -69 c-13 -24 -14 -54 -2 -47 5 3 31 -12 57 -34 27 -22 51 -36
55 -32 4 4 12 23 17 42 l10 35 1 -30 c2 -70 -77 -135 -174 -142 -60 -5 -105
19 -130 68 -9 17 -12 28 -5 24 17 -10 125 65 143 99 9 17 20 45 24 61 l8 30 3
-27 c2 -15 -2 -36 -7 -47z m436 63 c-3 -3 -12 -4 -19 -1 -8 3 -5 6 6 6 11 1
17 -2 13 -5z m-492 -36 c-9 -6 -19 -7 -22 -4 -4 3 -1 6 6 6 7 0 9 4 6 10 -4 6
1 7 11 3 15 -6 15 -7 -1 -15z m-1038 -80 c-3 -7 -5 -2 -5 12 0 14 2 19 5 13 2
-7 2 -19 0 -25z m1830 6 c-3 -3 -12 -4 -19 -1 -8 3 -5 6 6 6 11 1 17 -2 13 -5z
m103 -45 c15 0 19 -3 10 -6 -8 -3 -24 -13 -34 -22 -18 -15 -19 -15 -13 3 4 10
2 26 -5 35 -10 13 -10 14 2 4 8 -7 25 -13 40 -14z m-1923 -136 c-2 -27 -3 -5
-3 47 0 52 1 74 3 48 2 -27 2 -69 0 -95z m1633 97 c10 -6 2 -7 -25 -3 -49 7
-58 13 -19 13 16 0 36 -5 44 -10z m-90 -15 c-6 -8 -8 -20 -4 -27 5 -10 4 -10
-6 -1 -11 10 -11 15 0 28 7 8 15 15 17 15 3 0 0 -7 -7 -15z m1493 -102 c-7 -2
-19 -2 -25 0 -7 3 -2 5 12 5 14 0 19 -2 13 -5z m-2889 -71 c3 -5 0 -9 -7 -9
-7 0 -38 -4 -69 -8 -39 -5 -58 -4 -58 3 0 6 26 13 58 15 31 2 60 4 64 5 4 1 9
-2 12 -6z m2438 -16 c15 -23 7 -36 -32 -47 -26 -8 -36 -15 -28 -20 16 -10 -8
-40 -28 -32 -8 3 -22 2 -31 -2 -14 -6 -7 -10 27 -19 52 -13 64 -40 31 -70 -20
-18 -93 -28 -106 -14 -15 14 8 28 46 28 24 0 38 4 34 10 -3 6 -19 10 -34 10
-47 0 -67 42 -38 80 6 9 0 3 -15 -13 -14 -16 -31 -26 -37 -22 -6 3 -2 -17 9
-45 25 -63 25 -60 -5 -60 -14 0 -25 5 -25 10 0 16 -67 12 -74 -5 -4 -13 -46
-23 -46 -11 0 2 12 30 26 62 25 56 25 58 4 39 -18 -16 -23 -17 -30 -5 -7 10
-10 -3 -10 -42 0 -54 -2 -58 -22 -57 -14 0 -35 16 -55 41 l-33 40 0 -41 c0
-37 -2 -41 -25 -41 -22 0 -25 4 -25 38 -1 30 -3 34 -11 19 -5 -9 -7 -22 -4
-27 4 -6 3 -9 -2 -8 -4 1 -22 -6 -40 -15 -18 -9 -40 -17 -50 -17 -13 0 -15 -2
-5 -9 10 -6 9 -11 -4 -22 -16 -12 -17 -12 -9 1 7 12 6 13 -6 4 -8 -7 -22 -8
-34 -3 -32 12 -42 10 -73 -16 -19 -16 -33 -22 -37 -15 -4 6 -1 9 7 8 7 -2 12
3 10 10 -1 8 2 11 7 8 5 -4 12 -2 16 4 3 6 -7 18 -24 28 -17 9 -32 26 -32 37
-2 17 -2 17 -6 -2 -5 -26 -43 -33 -43 -8 0 8 -3 15 -7 15 -5 0 -19 3 -32 7
-21 5 -23 3 -19 -15 5 -18 2 -22 -18 -22 -20 0 -24 5 -24 30 0 17 -4 30 -9 30
-5 0 -8 -8 -7 -17 0 -11 -6 -17 -16 -17 -10 1 -18 -4 -18 -12 0 -11 -16 -14
-64 -14 -36 0 -67 -4 -70 -8 -2 -4 -20 -9 -38 -10 -32 -2 -48 -5 -100 -17 -34
-8 -121 -15 -230 -18 -107 -3 -108 -3 -108 59 0 32 2 34 33 34 39 1 103 9 137
17 14 3 34 7 45 9 11 1 30 5 43 8 13 3 22 0 22 -7 0 -7 4 -6 10 3 9 13 10 13
10 0 0 -9 3 -11 8 -5 8 11 37 13 47 3 4 -3 19 6 33 22 32 33 99 48 109 24 5
-13 7 -13 17 1 20 27 252 49 244 23 -3 -7 -15 -15 -29 -19 l-24 -7 26 -1 c19
-1 29 6 38 25 10 23 17 25 59 23 26 -1 54 1 62 4 95 33 370 62 700 74 14 0 28
-4 32 -11z m1768 -21 c0 -28 -4 -35 -20 -35 -16 0 -20 7 -20 35 0 28 4 35 20
35 16 0 20 -7 20 -35z m244 29 c31 -7 35 -24 6 -24 -11 0 -20 5 -20 10 0 6
-15 9 -32 9 -30 -2 -31 -2 -6 -6 16 -2 30 -12 33 -24 4 -10 13 -19 21 -19 8 0
12 5 9 10 -3 6 -1 10 4 10 6 0 11 -7 11 -15 0 -10 -10 -15 -30 -15 -23 0 -30
4 -30 20 0 11 -7 20 -15 20 -16 0 -16 -20 0 -32 6 -5 3 -8 -6 -8 -9 0 -21 10
-27 23 l-11 22 0 -22 c-1 -16 -7 -23 -21 -23 -25 0 -26 28 -2 46 16 12 15 13
-5 8 -12 -3 -24 -16 -27 -28 -6 -23 -46 -31 -46 -9 0 7 -4 13 -10 13 -5 0 -10
-7 -10 -15 0 -8 -4 -15 -10 -15 -5 0 -10 15 -10 34 l0 34 104 1 c58 1 116 -1
130 -5z m-4071 -17 c-17 -7 -35 -16 -40 -21 -5 -5 -2 -6 7 -1 9 5 12 4 7 -1
-5 -5 -47 -9 -95 -9 -69 0 -87 -3 -90 -15 -2 -10 7 -16 28 -17 16 -1 30 2 30
7 0 6 5 10 11 10 5 0 7 -4 4 -10 -3 -5 -1 -10 4 -10 6 0 11 6 11 13 0 7 3 8 8
2 10 -14 65 -17 56 -4 -4 8 -1 8 12 1 11 -5 30 -8 44 -7 14 1 34 -1 45 -6 19
-7 19 -8 -2 -8 -13 -1 -23 -7 -23 -13 0 -9 -4 -8 -10 2 -8 13 -13 13 -31 2
-11 -8 -19 -9 -16 -5 3 5 -24 10 -61 11 -50 1 -63 -1 -52 -9 12 -9 11 -9 -5
-4 -44 16 -51 16 -68 -2 -16 -18 -11 -19 133 -20 83 0 147 3 145 8 -3 4 5 13
17 20 19 9 21 9 11 -2 -15 -15 -17 -33 -4 -25 5 4 12 0 14 -6 3 -7 6 1 6 19 1
17 4 34 9 37 4 2 6 -14 4 -37 l-3 -42 18 27 c9 15 23 30 31 33 16 6 52 -12 52
-25 0 -6 21 -10 46 -10 48 0 52 -13 7 -25 -15 -3 -31 -11 -34 -17 -15 -23 -91
-26 -343 -12 -266 16 -306 23 -306 59 0 8 4 15 8 15 5 0 17 7 28 15 18 13 16
14 -23 13 -36 -1 -41 -4 -33 -18 6 -12 3 -21 -11 -33 -10 -9 -19 -13 -19 -9 0
4 -4 1 -9 -7 -6 -10 -15 -4 -37 24 -27 36 -28 38 -9 51 16 12 18 18 7 34 -7
11 -8 20 -3 20 6 0 13 -5 17 -11 4 -7 30 -9 78 -5 39 3 109 9 156 12 47 3 117
9 155 14 39 4 88 8 110 8 l40 0 -32 -11z m-806 -43 c-3 -3 -12 -4 -19 -1 -8 3
-5 6 6 6 11 1 17 -2 13 -5z m58 -14 c-3 -5 -17 -10 -31 -10 -14 0 -22 4 -19
10 3 6 17 10 31 10 14 0 22 -4 19 -10z m5009 -82 c-5 -7 -10 -4 -15 9 -4 12
-12 24 -18 28 -6 3 -16 16 -22 28 -6 14 3 8 26 -16 20 -21 33 -43 29 -49z
m-5287 40 c-3 -8 -6 -5 -6 6 -1 11 2 17 5 13 3 -3 4 -12 1 -19z m113 7 c0 -8
-2 -15 -4 -15 -2 0 -6 7 -10 15 -3 8 -1 15 4 15 6 0 10 -7 10 -15z m60 0 c0
-8 -4 -15 -8 -15 -5 0 -9 7 -9 15 0 8 4 15 9 15 4 0 8 -7 8 -15z m47 0 c0 -8
-4 -15 -9 -15 -4 0 -8 7 -8 15 0 8 4 15 8 15 5 0 9 -7 9 -15z m46 -5 c-3 -11
-7 -20 -9 -20 -2 0 -4 9 -4 20 0 11 4 20 9 20 5 0 7 -9 4 -20z m4795 4 c47
-19 98 -68 125 -119 28 -53 30 -164 3 -215 -47 -90 -119 -134 -216 -134 -77 0
-130 23 -180 80 -45 52 -60 93 -60 164 0 71 15 112 59 162 64 73 180 100 269
62z m-4692 -22 c14 -9 37 -52 31 -58 -6 -6 -57 43 -57 56 0 12 10 13 26 2z
m4014 -2 c17 -5 19 -8 8 -9 -10 -1 -18 -5 -18 -11 0 -16 -22 -12 -55 10 l-30
20 35 -1 c19 -1 46 -5 60 -9z m-4199 -32 c105 -35 173 -129 172 -237 -3 -258
-349 -346 -481 -122 -23 39 -27 58 -27 121 0 64 4 82 28 122 47 81 126 126
223 127 28 1 66 -4 85 -11z m5116 -5 c-4 -3 -1 -13 6 -22 11 -14 10 -14 -5 -2
-16 12 -16 31 -1 31 4 0 3 -3 0 -7z m-4558 -17 c-8 -8 -78 -10 -85 -3 -4 4 14
7 41 7 27 0 46 -2 44 -4z m3889 -39 c-6 -20 -15 -37 -19 -37 -8 0 4 50 16 70
13 21 14 4 3 -33z m-4208 13 c0 -5 -2 -10 -4 -10 -3 0 -8 5 -11 10 -3 6 -1 10
4 10 6 0 11 -4 11 -10z m1864 -56 c3 -8 2 -12 -4 -9 -6 3 -10 10 -10 16 0 14
7 11 14 -7z m1839 -88 c12 -22 42 -58 66 -80 24 -23 50 -47 57 -54 7 -7 16
-13 19 -12 3 0 11 0 18 -1 9 0 9 -2 -1 -6 -6 -2 -10 -8 -7 -13 9 -15 -218 -16
-259 0 -29 11 -154 14 -143 4 3 -3 36 -8 74 -11 37 -3 70 -7 72 -9 2 -2 -47
-5 -110 -6 l-114 -2 90 -6 90 -6 -112 -2 c-111 -2 -143 7 -103 28 l21 11 -21
17 c-25 20 -20 57 11 91 10 11 19 23 19 26 0 13 37 43 60 48 14 3 57 9 95 12
39 4 72 9 75 12 2 2 22 3 43 1 33 -3 41 -8 60 -42z m589 -18 c8 -69 -7 -69
-18 0 -4 26 -3 42 4 42 5 0 12 -19 14 -42z m-3809 25 c-7 -2 -19 -2 -25 0 -7
3 -2 5 12 5 14 0 19 -2 13 -5z m150 0 c-23 -2 -64 -2 -90 0 -26 2 -7 3 42 3
50 0 71 -1 48 -3z m4274 -35 c-3 -8 -6 -5 -6 6 -1 11 2 17 5 13 3 -3 4 -12 1
-19z m-5510 -63 c7 -32 7 -45 0 -42 -6 2 -11 12 -13 22 -2 10 -5 29 -9 42 -3
13 -2 23 3 23 5 0 13 -20 19 -45z m6283 41 c0 -2 -8 -10 -17 -17 -16 -13 -17
-12 -4 4 13 16 21 21 21 13z m-62 -18 c-2 -7 2 -12 8 -11 6 1 11 -5 11 -13 0
-12 -4 -11 -18 2 -10 9 -16 21 -13 25 8 13 14 11 12 -3z m97 -7 c3 -5 2 -12
-3 -15 -5 -3 -9 1 -9 9 0 17 3 19 12 6z m-30 -20 c3 -5 2 -12 -3 -15 -5 -3 -9
1 -9 9 0 17 3 19 12 6z m-3170 -10 c-35 -15 -125 -24 -125 -13 0 6 7 9 16 8 9
-1 33 1 53 5 20 4 45 7 56 7 l20 1 -20 -8z m2884 5 c-7 -7 -129 -55 -129 -51
0 6 61 37 90 46 29 9 45 11 39 5z m-3022 -23 c0 -17 -17 -17 -18 0 0 10 -2 10
-6 0 -6 -15 -29 -17 -38 -3 -3 5 0 7 8 4 8 -3 17 -1 21 4 8 14 33 10 33 -5z
m-432 -14 c5 -5 1 -9 -12 -9 -36 0 -83 12 -83 21 0 11 81 0 95 -12z m3538 -16
c17 -20 31 -44 29 -54 -2 -9 2 -20 8 -24 6 -3 8 -11 5 -16 -9 -14 -61 -11 -74
5 -6 8 -39 24 -72 36 -32 13 -61 26 -64 30 -2 4 24 10 59 12 76 6 92 14 75 34
-26 31 4 11 34 -23z m-2978 17 c3 -5 1 -10 -4 -10 -6 0 -11 5 -11 10 0 6 2 10
4 10 3 0 8 -4 11 -10z m-961 -17 c60 -2 112 -6 115 -8 5 -6 -265 -10 -384 -6
-99 3 -112 11 -19 12 74 0 146 7 153 14 2 3 8 2 14 -2 6 -3 60 -8 121 -10z
m881 -23 c-3 -5 -13 -10 -21 -10 -8 0 -12 5 -9 10 3 6 13 10 21 10 8 0 12 -4
9 -10z m2845 -10 c13 -8 13 -10 -2 -10 -9 0 -20 5 -23 10 -8 13 5 13 25 0z
m-3515 -10 c3 -5 -1 -10 -10 -10 -9 0 -13 5 -10 10 3 6 8 10 10 10 2 0 7 -4
10 -10z m81 -8 c-5 -8 -66 -4 -66 4 0 2 16 4 36 4 19 0 33 -4 30 -8z m1791 2
c-3 -3 -12 -4 -19 -1 -8 3 -5 6 6 6 11 1 17 -2 13 -5z m1163 -19 c0 -14 -4
-25 -10 -25 -11 0 -14 33 -3 43 11 11 13 8 13 -18z m-439 -16 c36 -25 37 -39
3 -39 -30 0 -91 46 -71 53 23 10 39 7 68 -14z m-4101 1 c0 -5 -5 -10 -11 -10
-5 0 -7 5 -4 10 3 6 8 10 11 10 2 0 4 -4 4 -10z m4920 -10 c0 -5 -5 -10 -11
-10 -5 0 -7 5 -4 10 3 6 8 10 11 10 2 0 4 -4 4 -10z m-3449 -30 l54 -8 -80 -2
c-44 -1 -88 -3 -98 -5 -91 -17 -203 -32 -302 -40 -44 -3 -96 -8 -115 -11 -19
-3 -174 -7 -343 -9 -343 -4 -350 -3 -433 61 l-49 37 656 -8 c361 -4 680 -10
710 -15z m3034 11 c3 -5 1 -12 -5 -16 -5 -3 -10 1 -10 9 0 18 6 21 15 7z
m-329 -26 c4 -10 13 -13 25 -10 25 8 24 -11 -1 -25 -16 -9 -20 -8 -20 6 0 12
-6 15 -25 10 -28 -7 -31 -2 -12 19 16 19 26 19 33 0z m233 -10 c-10 -10 -22
-13 -35 -8 -17 6 -17 8 6 14 40 11 45 10 29 -6z m-4728 -18 c-10 -9 -11 -8 -5
6 3 10 9 15 12 12 3 -3 0 -11 -7 -18z m-450 -4 c13 -16 12 -17 -3 -4 -10 7
-18 15 -18 17 0 8 8 3 21 -13z m5089 8 c0 -13 -30 -35 -37 -27 -4 4 -1 11 7
16 10 6 4 10 -21 13 -32 4 -31 4 9 5 23 1 42 -2 42 -7z m50 -21 c-24 -15 -37
-11 -16 5 11 8 22 12 25 9 3 -3 -1 -9 -9 -14z m-4727 -5 c-3 -9 -8 -14 -10
-11 -3 3 -2 9 2 15 9 16 15 13 8 -4z m-98 -25 c-3 -5 -11 -10 -16 -10 -6 0 -7
5 -4 10 3 6 11 10 16 10 6 0 7 -4 4 -10z"/>
<path d="M3091 2412 l-65 -35 32 -28 c38 -34 86 -44 140 -29 39 10 103 54 92
62 -29 23 -110 68 -121 67 -8 -1 -43 -17 -78 -37z"/>
<path d="M4250 2066 c0 -2 8 -10 18 -17 15 -13 16 -12 3 4 -13 16 -21 21 -21
13z"/>
<path d="M3615 2050 c-3 -6 1 -7 9 -4 18 7 21 14 7 14 -6 0 -13 -4 -16 -10z"/>
<path d="M3658 2053 c7 -3 16 -2 19 1 4 3 -2 6 -13 5 -11 0 -14 -3 -6 -6z"/>
<path d="M3490 2040 c0 -5 6 -10 14 -10 8 0 18 5 21 10 3 6 -3 10 -14 10 -12
0 -21 -4 -21 -10z"/>
<path d="M4417 2030 c-3 -13 0 -20 9 -20 15 0 19 26 5 34 -5 3 -11 -3 -14 -14z"/>
<path d="M3556 2025 c-9 -26 -7 -32 5 -12 6 10 9 21 6 23 -2 3 -7 -2 -11 -11z"/>
<path d="M3638 2013 c-51 -6 -48 -23 3 -23 22 0 38 4 34 9 -3 5 3 12 12 14 21
5 4 5 -49 0z"/>
<path d="M3472 1970 c0 -14 2 -19 5 -12 2 6 2 18 0 25 -3 6 -5 1 -5 -13z"/>
<path d="M3551 1974 c0 -11 3 -14 6 -6 3 7 2 16 -1 19 -3 4 -6 -2 -5 -13z"/>
<path d="M3990 1976 c0 -2 8 -10 18 -17 15 -13 16 -12 3 4 -13 16 -21 21 -21
13z"/>
<path d="M2278 2023 c12 -2 32 -2 45 0 12 2 2 4 -23 4 -25 0 -35 -2 -22 -4z"/>
<path d="M2453 2013 c20 -2 54 -2 75 0 20 2 3 4 -38 4 -41 0 -58 -2 -37 -4z"/>
<path d="M2665 2010 c-67 -6 -65 -7 39 -8 60 -1 107 0 105 2 -10 9 -80 12
-144 6z"/>
<path d="M6485 2053 c-147 -77 -171 -265 -49 -373 40 -34 52 -37 61 -12 4 9
11 20 16 23 5 4 0 10 -12 14 -11 3 -21 11 -21 16 0 5 -6 8 -12 7 -7 -2 -12 3
-10 10 1 6 -2 12 -8 12 -13 0 -40 54 -40 79 0 13 -5 19 -14 15 -8 -3 -17 -1
-21 5 -3 6 2 11 12 11 12 0 22 12 30 37 10 32 9 41 -5 57 -16 18 -16 18 6 7
19 -10 27 -8 56 16 28 22 33 30 25 45 -6 11 -6 18 -1 18 13 0 24 -44 12 -48
-5 -2 -21 -13 -36 -24 l-27 -22 24 -19 c14 -11 25 -15 27 -8 2 6 9 8 14 5 8
-5 9 3 5 24 -4 19 -2 32 3 32 10 0 15 -25 10 -45 -1 -5 -3 -16 -3 -22 0 -7 -7
-13 -14 -13 -8 0 -12 -4 -9 -9 3 -5 -1 -14 -9 -21 -8 -7 -12 -16 -9 -21 3 -5
-11 -9 -30 -9 -29 0 -36 -4 -36 -19 0 -11 8 -27 17 -36 16 -16 17 -16 30 0 7
10 10 21 8 26 -12 18 16 18 35 -1 26 -26 64 -26 91 1 34 34 6 99 -42 99 -11 0
-16 7 -14 18 1 9 10 16 19 16 9 -1 19 8 22 22 3 13 10 22 14 19 5 -3 5 -19 0
-35 -9 -33 -2 -37 31 -19 12 6 28 8 37 4 13 -5 11 -10 -13 -29 -34 -28 -26
-46 21 -46 37 0 39 5 24 45 -6 16 -6 24 0 20 18 -11 28 -73 19 -112 -15 -56
-15 -65 -4 -70 6 -2 16 17 23 42 6 25 16 45 22 45 31 0 -12 -102 -58 -137 -26
-19 -33 -21 -22 -8 7 11 21 26 29 32 28 25 -14 25 -52 1 -36 -23 -46 -41 -27
-53 6 -4 8 -11 4 -16 -8 -14 -24 0 -24 22 0 18 -6 20 -47 17 -44 -3 -48 -5
-51 -30 -3 -28 -3 -28 58 -28 128 0 220 91 220 217 -1 132 -92 224 -222 223
-29 -1 -66 -8 -83 -17z m140 -25 c-4 -18 2 -29 29 -50 31 -25 36 -26 50 -13
16 16 26 19 26 7 0 -4 -9 -13 -20 -20 -18 -11 -25 -9 -58 18 -27 22 -48 30
-82 32 l-45 1 41 4 c31 3 43 9 47 24 3 10 8 19 11 19 4 0 4 -10 1 -22z m-31
-171 c8 -14 8 -20 -4 -27 -22 -14 -40 -12 -46 5 -16 41 27 60 50 22z m186 -9
c0 -5 -7 -8 -15 -8 -15 0 -20 21 -8 33 7 7 23 -11 23 -25z m-316 -53 c-4 -8
-8 -15 -10 -15 -2 0 -4 7 -4 15 0 8 4 15 10 15 5 0 7 -7 4 -15z m116 -140 c0
-8 -9 -15 -20 -15 -11 0 -20 7 -20 15 0 8 9 15 20 15 11 0 20 -7 20 -15z"/>
<path d="M6431 1914 c-17 -39 -14 -54 12 -52 39 3 47 21 22 50 l-23 26 -11
-24z"/>
<path d="M6634 1829 c-7 -12 32 -48 52 -49 12 0 25 46 16 55 -10 10 -61 5 -68
-6z"/>
<path d="M6479 1774 c-15 -18 -22 -47 -9 -39 5 3 11 1 15 -5 13 -21 27 -10 21
18 -5 21 -4 24 4 12 9 -13 11 -12 8 4 -4 26 -22 30 -39 10z"/>
<path d="M6603 1768 c2 -13 8 -31 12 -40 5 -13 3 -18 -9 -18 -9 0 -16 5 -16
11 0 5 -4 8 -9 5 -5 -3 -12 1 -15 10 -3 8 -2 12 4 9 6 -3 7 1 4 9 -9 24 -23
19 -34 -10 -16 -40 -13 -44 31 -44 26 0 52 8 71 21 l30 22 -29 23 c-36 29 -47
30 -40 2z"/>
<path d="M1632 1981 c-80 -28 -128 -83 -147 -169 -17 -79 37 -182 116 -223 56
-28 117 -35 125 -15 3 9 10 16 16 16 5 0 6 -5 2 -11 -11 -18 41 -2 87 26 81
52 119 160 85 248 -21 55 -79 112 -135 132 -56 19 -84 19 -149 -4z m94 -40
c-9 -14 12 -63 23 -56 5 3 13 0 17 -6 4 -8 3 -9 -5 -5 -17 11 -71 -48 -71 -79
0 -36 41 -75 80 -75 46 0 84 42 77 84 -5 34 24 88 40 73 4 -5 -3 -16 -15 -26
-31 -23 -20 -51 20 -51 40 0 32 -24 -10 -28 -36 -4 -41 -21 -13 -46 11 -10 17
-24 14 -32 -5 -12 -9 -11 -27 5 -33 31 -45 26 -48 -21 -4 -53 -28 -65 -28 -14
0 45 -24 48 -48 7 -9 -17 -25 -32 -34 -35 -11 -2 -15 0 -12 6 4 6 0 14 -7 19
-11 7 -11 9 3 9 18 0 33 33 23 50 -5 8 -15 6 -32 -5 -35 -23 -60 -26 -60 -8 0
9 15 24 34 35 40 24 34 38 -17 38 -41 0 -62 16 -39 31 8 5 24 7 36 4 27 -6 53
3 53 19 0 7 -16 21 -35 32 -44 23 -30 43 16 20 31 -16 69 -21 69 -11 0 3 -7
21 -14 40 -13 31 -13 35 0 35 8 0 13 -4 10 -9z m-136 -25 c-6 -8 -18 -12 -26
-9 -19 7 -7 23 18 23 17 0 18 -3 8 -14z m194 -105 c10 -16 -5 -41 -24 -41 -23
0 -34 16 -26 35 6 16 42 20 50 6z"/>
<path d="M5418 1663 c12 -2 30 -2 40 0 9 3 -1 5 -23 4 -22 0 -30 -2 -17 -4z"/>
<path d="M6342 1574 c9 -9 21 -13 27 -9 16 10 3 25 -22 25 -20 0 -20 -1 -5
-16z"/>
<path d="M1439 2723 c-13 -16 -12 -17 4 -4 9 7 17 15 17 17 0 8 -8 3 -21 -13z"/>
<path d="M1621 2709 c-13 -5 -22 -10 -20 -12 13 -7 351 6 338 14 -19 12 -287
10 -318 -2z"/>
<path d="M3738 2683 c-54 -3 -78 -8 -82 -18 -4 -12 15 -14 114 -12 66 1 120 4
120 7 0 10 55 6 62 -5 4 -5 8 0 8 13 0 23 -14 30 -25 11 -4 -6 -14 -7 -24 -3
-22 9 -81 11 -173 7z"/>
<path d="M3970 2670 c0 -17 7 -20 40 -20 33 0 40 3 40 20 0 17 -7 20 -40 20
-33 0 -40 -3 -40 -20z m40 0 c0 -5 -7 -10 -16 -10 -8 0 -12 5 -9 10 3 6 10 10
16 10 5 0 9 -4 9 -10z"/>
<path d="M1637 2673 c-15 -14 -6 -23 13 -13 13 7 73 10 159 8 77 -2 137 0 134
5 -5 9 -297 10 -306 0z"/>
<path d="M1251 2666 c8 -8 149 -12 149 -4 0 4 -34 8 -77 8 -42 0 -74 -2 -72
-4z"/>
<path d="M1673 2653 c-22 -8 -14 -21 10 -17 12 2 16 2 9 -2 -29 -14 2 -19 99
-16 67 2 98 7 88 13 -10 6 0 9 31 9 33 0 41 3 30 10 -15 10 -244 13 -267 3z"/>
<path d="M1191 2586 c-21 -26 -10 -69 22 -80 23 -8 31 -6 49 12 18 18 20 26
12 49 -7 21 -17 29 -40 31 -18 2 -36 -3 -43 -12z m58 -36 c0 -14 -3 -19 -6
-11 -5 11 -7 11 -14 0 -7 -12 -9 -11 -9 1 0 13 -1 13 -10 0 -8 -12 -10 -11
-10 6 0 26 7 33 31 31 14 -1 19 -9 18 -27z"/>
<path d="M1303 2574 c-4 -10 -2 -19 5 -22 7 -2 12 -8 12 -13 0 -6 -4 -7 -10
-4 -5 3 -10 1 -10 -4 0 -15 23 -14 38 1 9 9 12 9 12 -2 0 -13 2 -13 10 0 6 10
10 11 10 3 0 -26 20 -12 21 15 l1 27 8 -30 c8 -30 8 -30 9 8 1 27 -3 37 -14
37 -8 0 -15 -6 -15 -12 0 -9 -4 -8 -10 2 -8 12 -10 12 -11 -5 0 -15 -2 -16 -7
-5 -10 22 -41 24 -49 4z m37 -14 c0 -5 -7 -7 -15 -4 -8 4 -15 8 -15 10 0 2 7
4 15 4 8 0 15 -4 15 -10z"/>
<path d="M1422 2572 c-3 -9 0 -18 6 -20 7 -2 12 -8 12 -13 0 -6 -4 -7 -10 -4
-5 3 -10 2 -10 -3 0 -6 21 -10 48 -11 151 -3 152 -3 152 29 0 33 -18 49 -31
29 -5 -8 -9 -9 -9 -4 0 14 -40 14 -40 0 0 -5 -4 -4 -9 4 -11 18 -31 5 -31 -20
0 -16 -2 -18 -14 -7 -8 7 -10 15 -5 16 5 2 9 7 9 12 0 15 -62 8 -68 -8z m45
-17 c23 -24 9 -28 -17 -5 -13 11 -18 20 -11 20 7 0 19 -7 28 -15z m50 -17 c-3
-7 -5 -2 -5 12 0 14 2 19 5 13 2 -7 2 -19 0 -25z m90 0 c-3 -7 -5 -2 -5 12 0
14 2 19 5 13 2 -7 2 -19 0 -25z m-37 2 c0 -5 -5 -10 -11 -10 -5 0 -7 5 -4 10
3 6 8 10 11 10 2 0 4 -4 4 -10z"/>
<path d="M1630 2555 c0 -19 4 -35 9 -35 5 0 11 16 13 35 3 24 0 35 -9 35 -8 0
-13 -13 -13 -35z"/>
<path d="M1667 2583 c-4 -3 -7 -19 -7 -35 0 -22 4 -28 23 -28 14 0 18 3 10 8
-7 5 -10 19 -8 35 5 26 -4 35 -18 20z"/>
<path d="M1622 2459 c12 -8 146 -13 137 -5 -2 2 -37 6 -77 8 -42 3 -68 2 -60
-3z"/>
<path d="M4830 2395 c0 -20 5 -25 24 -25 15 0 26 7 29 19 6 25 0 31 -30 31
-18 0 -23 -5 -23 -25z m37 -7 c-3 -8 -6 -5 -6 6 -1 11 2 17 5 13 3 -3 4 -12 1
-19z"/>
<path d="M5013 2363 c-37 -5 -42 -22 -15 -49 16 -17 17 -16 26 9 6 15 16 27
23 27 7 0 13 5 13 10 0 6 -3 9 -7 8 -5 0 -23 -3 -40 -5z"/>
<path d="M4730 2305 c0 -11 11 -15 40 -15 27 0 40 4 40 13 0 9 -14 14 -40 15
-30 1 -40 -2 -40 -13z"/>
<path d="M4945 2280 c-3 -5 1 -10 9 -10 8 0 18 5 21 10 3 6 -1 10 -9 10 -8 0
-18 -4 -21 -10z"/>
<path d="M1410 2275 c0 -5 22 -29 50 -53 l49 -42 16 30 c16 30 14 34 -17 31
-9 -1 -31 5 -47 14 -17 8 -31 12 -31 8 0 -5 -5 -1 -10 7 -5 8 -10 11 -10 5z"/>
<path d="M5000 2220 l-35 -7 35 -2 c19 0 42 4 50 9 13 9 13 10 0 9 -8 -1 -31
-5 -50 -9z"/>
<path d="M4965 2121 c-3 -5 -1 -12 5 -16 5 -3 10 1 10 9 0 18 -6 21 -15 7z"/>
<path d="M4997 2124 c-8 -8 1 -24 14 -24 5 0 9 7 9 15 0 15 -12 20 -23 9z"/>
<path d="M5035 2101 c-6 -11 9 -23 19 -14 9 9 7 23 -3 23 -6 0 -12 -4 -16 -9z"/>
<path d="M5084 2075 c-7 -41 4 -59 32 -53 15 2 19 12 19 43 0 34 -4 41 -22 43
-18 3 -23 -3 -29 -33z m41 5 c-3 -5 -10 -10 -16 -10 -5 0 -9 5 -9 10 0 6 7 10
16 10 8 0 12 -4 9 -10z m-5 -30 c0 -5 -7 -10 -16 -10 -8 0 -12 5 -9 10 3 6 10
10 16 10 5 0 9 -4 9 -10z"/>
<path d="M5156 2088 c-8 -32 -7 -68 2 -68 4 0 9 20 10 45 2 49 -2 57 -12 23z"/>
<path d="M5327 2103 c-2 -5 -7 -26 -11 -48 -6 -36 -5 -38 8 -22 12 15 14 16
20 2 3 -8 10 -15 16 -15 7 0 8 6 0 19 -7 13 -7 22 0 26 5 3 10 11 10 18 0 8
-3 8 -12 -1 -18 -18 -27 -15 -21 8 5 19 -1 28 -10 13z"/>
<path d="M5385 2096 c-15 -49 -15 -67 1 -73 25 -9 46 9 50 44 3 26 0 31 -22
36 -14 2 -27 0 -29 -7z m40 -16 c-3 -5 -10 -10 -16 -10 -5 0 -9 5 -9 10 0 6 7
10 16 10 8 0 12 -4 9 -10z m-5 -30 c0 -5 -7 -10 -15 -10 -8 0 -15 5 -15 10 0
6 7 10 15 10 8 0 15 -4 15 -10z"/>
<path d="M4916 2083 c-4 -5 -26 -9 -49 -10 -23 0 -42 -2 -42 -3 0 -2 -36 -8
-62 -12 -7 -1 -13 -14 -13 -30 0 -16 6 -30 13 -33 6 -2 41 -13 77 -25 115 -38
106 -40 114 32 4 34 13 69 19 77 12 15 13 15 -40 -6 -11 -4 -14 -3 -9 5 8 13
3 16 -8 5z"/>
<path d="M4990 2080 c0 -5 4 -10 9 -10 6 0 13 5 16 10 3 6 -1 10 -9 10 -9 0
-16 -4 -16 -10z"/>
<path d="M5195 2081 c-3 -5 3 -12 12 -14 14 -4 13 -5 -4 -6 -33 -2 -32 -41 1
-41 18 0 25 7 29 27 3 16 3 31 0 35 -6 11 -31 10 -38 -1z m22 -37 c-3 -3 -12
-4 -19 -1 -8 3 -5 6 6 6 11 1 17 -2 13 -5z"/>
<path d="M5256 2074 c-9 -8 -16 -19 -16 -23 0 -15 30 -33 45 -27 22 8 18 25
-5 19 -14 -4 -20 0 -20 12 0 13 6 16 25 11 27 -7 35 8 9 18 -21 8 -20 8 -38
-10z"/>
<path d="M5462 2078 c-17 -17 -15 -48 4 -55 8 -3 21 0 27 7 10 10 8 12 -5 7
-10 -3 -20 -2 -23 3 -4 6 5 10 19 10 14 0 26 4 26 8 0 9 -21 32 -30 32 -3 0
-11 -5 -18 -12z"/>
<path d="M5530 2075 c-14 -18 -22 -55 -11 -55 5 0 11 10 13 22 2 12 9 23 16
26 9 3 11 -3 6 -22 -8 -33 3 -34 16 -1 15 41 33 31 27 -15 -3 -22 -3 -40 -1
-40 5 0 54 86 54 96 0 5 -9 -2 -20 -16 -18 -23 -20 -24 -20 -5 0 17 -6 21 -36
20 -20 0 -39 -4 -44 -10z"/>
<path d="M5020 2060 c0 -5 6 -10 14 -10 8 0 18 5 21 10 3 6 -3 10 -14 10 -12
0 -21 -4 -21 -10z"/>
<path d="M4980 2050 c0 -5 7 -10 15 -10 8 0 15 5 15 10 0 6 -7 10 -15 10 -8 0
-15 -4 -15 -10z"/>
<path d="M7080 1940 c8 -5 22 -9 30 -9 10 0 8 3 -5 9 -27 12 -43 12 -25 0z"/>
<path d="M7195 1905 c6 -2 38 -13 73 -24 43 -13 60 -15 52 -6 -6 7 -27 15 -48
19 -20 3 -48 8 -62 11 -14 3 -20 3 -15 0z"/>
<path d="M5025 1870 c-10 -11 -13 -20 -8 -20 13 0 38 29 31 35 -3 3 -13 -4
-23 -15z"/>
<path d="M7584 1815 c14 -11 45 -15 105 -15 65 1 82 3 68 11 -10 6 -25 8 -33
5 -8 -3 -14 -1 -14 4 0 6 -32 10 -72 10 -66 -1 -71 -2 -54 -15z"/>
<path d="M7171 1654 c0 -11 3 -14 6 -6 3 7 2 16 -1 19 -3 4 -6 -2 -5 -13z"/>
<path d="M6896 1572 c-3 -5 1 -9 9 -9 8 0 12 4 9 9 -3 4 -7 8 -9 8 -2 0 -6 -4
-9 -8z"/>
</g>
</svg>
